<?xml version="1.0" standalone="no"?>
<!DOCTYPE svg PUBLIC "-//W3C//DTD SVG 20010904//EN"
 "http://www.w3.org/TR/2001/REC-SVG-20010904/DTD/svg10.dtd">
<svg version="1.0" xmlns="http://www.w3.org/2000/svg"
 width="160.000000pt" height="160.000000pt" viewBox="0 0 160.000000 160.000000"
 preserveAspectRatio="xMidYMid meet">
<metadata>
Created by potrace 1.14, written by Peter Selinger 2001-2017
</metadata>
<g transform="translate(0.000000,160.000000) scale(0.100000,-0.100000)"
fill="#000000" stroke="none">
<path d="M691 1358 c-16 -26 -30 -38 -46 -38 -65 0 -135 -113 -135 -218 0 -92
-17 -150 -49 -166 l-26 -14 27 -7 c16 -4 39 -4 53 -1 24 6 25 4 25 -34 0 -44
5 -47 39 -24 21 15 24 15 52 -12 23 -22 29 -24 29 -11 0 9 5 17 10 17 6 0 10
-13 10 -29 0 -23 -5 -30 -22 -33 -13 -2 -27 -13 -33 -25 -5 -12 -21 -25 -35
-28 -42 -9 -98 -62 -110 -103 -5 -20 -10 -63 -10 -94 l0 -57 -37 -3 c-43 -3
-40 14 -27 -158 l7 -95 -35 -55 c-35 -54 -88 -154 -88 -165 0 -3 61 -5 135 -5
l135 0 0 38 c0 27 6 45 22 58 20 18 21 18 15 1 -4 -10 -10 -36 -13 -58 l-7
-39 347 0 347 0 -15 28 c-8 15 -33 52 -56 82 l-42 55 6 131 7 131 -36 31 c-19
18 -35 41 -35 53 0 12 -18 39 -39 61 -28 27 -41 51 -46 80 -8 48 -52 98 -84
98 -12 0 -31 11 -43 25 -24 27 -47 32 -66 13 -9 -9 -12 -8 -12 5 0 12 8 17 27
17 16 0 39 11 55 27 l28 27 0 -40 1 -39 20 24 c15 18 23 21 31 13 20 -20 28
-14 28 21 0 56 19 107 39 107 10 0 29 9 42 20 l24 19 -28 1 c-30 0 -30 -1 -45
80 -10 50 -9 56 9 69 19 14 19 15 -16 51 -23 24 -33 40 -26 44 16 10 14 46 -2
40 -9 -3 -18 9 -25 35 -7 21 -21 50 -32 63 l-19 23 -1 -54 c0 -51 -1 -53 -17
-39 -28 24 -80 48 -105 48 -13 0 -35 -6 -50 -14 -27 -14 -27 -14 -30 22 l-3
37 -24 -37z m38 -152 c12 -14 10 -16 -23 -16 l-36 0 0 50 c0 27 8 69 18 92
l17 43 5 -76 c3 -43 11 -83 19 -93z m245 32 c6 -55 5 -58 -16 -58 -34 0 -49
13 -38 30 6 8 10 49 11 90 l1 75 18 -40 c9 -22 20 -66 24 -97z m-87 -125 c-3
-10 -5 -4 -5 12 0 17 2 24 5 18 2 -7 2 -21 0 -30z m90 -70 c-3 -10 -5 -2 -5
17 0 19 2 27 5 18 2 -10 2 -26 0 -35z m-280 -30 c-3 -10 -5 -2 -5 17 0 19 2
27 5 18 2 -10 2 -26 0 -35z m310 15 c-3 -7 -5 -2 -5 12 0 14 2 19 5 13 2 -7 2
-19 0 -25z m-350 -20 c-3 -7 -5 -2 -5 12 0 14 2 19 5 13 2 -7 2 -19 0 -25z
m236 -18 c3 -11 1 -18 -4 -14 -5 3 -9 12 -9 20 0 20 7 17 13 -6z m-140 -11 c4
-15 1 -19 -11 -17 -21 4 -29 38 -9 38 8 0 17 -9 20 -21z m91 -114 c-4 -8 -10
-15 -15 -15 -4 0 -6 7 -3 15 4 8 10 15 15 15 4 0 6 -7 3 -15z m66 -139 c0 -3
-4 -8 -10 -11 -5 -3 -10 -1 -10 4 0 6 5 11 10 11 6 0 10 -2 10 -4z m159 -172
c15 -19 19 -36 16 -71 -5 -64 -14 -69 -71 -41 -41 20 -57 23 -97 17 -61 -9
-93 -31 -114 -74 -11 -23 -21 -32 -32 -28 -14 4 -14 3 -1 -6 22 -15 1 -31 -32
-24 -24 4 -26 8 -17 24 5 11 13 18 17 15 4 -2 7 12 8 32 l1 35 -23 -51 c-17
-38 -28 -52 -43 -52 -25 0 -36 33 -20 62 7 13 15 37 18 53 12 56 159 111 358
134 6 0 21 -10 32 -25z m-471 -89 c2 -2 -12 -46 -33 -104 -4 -11 -15 -5 -41
20 -35 34 -35 34 -12 41 22 6 21 6 -4 7 -25 1 -28 5 -28 35 l0 33 58 -15 c31
-9 58 -16 60 -17z m417 -32 c19 -9 35 -20 35 -24 0 -12 -38 -21 -52 -13 -10 6
-10 5 0 -8 12 -15 14 -99 3 -115 -3 -4 -42 -8 -86 -8 -44 0 -94 -4 -111 -8
-29 -7 -32 -6 -37 19 -7 36 21 76 48 70 11 -2 29 -6 40 -9 11 -2 14 -2 8 0
-38 13 11 39 55 29 l27 -6 -25 15 c-14 8 -19 14 -11 15 8 0 12 2 9 6 -3 3 -21
-4 -39 -15 -19 -12 -44 -21 -57 -21 -22 0 -22 1 -7 31 29 55 128 76 200 42z
m21 -70 c-10 -10 -19 5 -10 18 6 11 8 11 12 0 2 -7 1 -15 -2 -18z m14 -33 c0
-11 -7 -20 -15 -20 -8 0 -15 9 -15 20 0 11 7 20 15 20 8 0 15 -9 15 -20z m-24
-56 c-4 -9 -9 -15 -11 -12 -3 3 -3 13 1 22 4 9 9 15 11 12 3 -3 3 -13 -1 -22z"/>
<path d="M1000 515 c0 -2 18 -14 40 -25 22 -11 40 -18 40 -15 0 2 -18 14 -40
25 -22 11 -40 18 -40 15z"/>
<path d="M943 403 c9 -2 23 -2 30 0 6 3 -1 5 -18 5 -16 0 -22 -2 -12 -5z"/>
<path d="M878 313 c6 -2 18 -2 25 0 6 3 1 5 -13 5 -14 0 -19 -2 -12 -5z"/>
</g>
</svg>
