<svg class="fill-current" aria-hidden="true" focusable="false" role="img" xmlns="http://www.w3.org/2000/svg" viewBox="0 0 16 16"><rect x="15" y="14" width="1" height="1"/><rect x="15" y="13" width="1" height="1"/><rect x="15" y="12" width="1" height="1"/><rect x="15" y="11" width="1" height="1"/><rect x="15" y="10" width="1" height="1"/><rect x="15" y="9" width="1" height="1"/><rect x="15" y="8" width="1" height="1"/><rect x="15" y="7" width="1" height="1"/><rect x="15" y="6" width="1" height="1"/><rect x="15" y="5" width="1" height="1"/><rect x="15" y="4" width="1" height="1"/><rect x="15" y="3" width="1" height="1"/><rect x="15" y="2" width="1" height="1"/><rect x="15" y="1" width="1" height="1"/><rect x="14" y="15" width="1" height="1"/><rect x="14" y="14" width="1" height="1"/><rect x="14" y="13" width="1" height="1"/><rect x="14" y="12" width="1" height="1"/><rect x="14" y="11" width="1" height="1"/><rect x="14" y="10" width="1" height="1"/><rect x="14" y="9" width="1" height="1"/><rect x="14" y="8" width="1" height="1"/><rect x="14" y="7" width="1" height="1"/><rect x="14" y="6" width="1" height="1"/><rect x="14" y="5" width="1" height="1"/><rect x="14" y="4" width="1" height="1"/><rect x="14" y="3" width="1" height="1"/><rect x="14" y="2" width="1" height="1"/><rect x="14" y="1" width="1" height="1"/><rect x="14" width="1" height="1"/><rect x="13" y="15" width="1" height="1"/><rect x="13" y="14" width="1" height="1"/><rect x="13" y="13" width="1" height="1"/><rect x="13" y="12" width="1" height="1"/><rect x="13" y="11" width="1" height="1"/><rect x="13" y="10" width="1" height="1"/><rect x="13" y="9" width="1" height="1"/><rect x="13" y="8" width="1" height="1"/><rect x="13" y="7" width="1" height="1"/><rect x="13" y="6" width="1" height="1"/><rect x="13" y="5" width="1" height="1"/><rect x="13" y="3" width="1" height="1"/><rect x="13" y="2" width="1" height="1"/><rect x="13" y="1" width="1" height="1"/><rect x="13" width="1" height="1"/><rect x="12" y="15" width="1" height="1"/><rect x="12" y="14" width="1" height="1"/><rect x="12" y="13" width="1" height="1"/><rect x="12" y="12" width="1" height="1"/><rect x="12" y="11" width="1" height="1"/><rect x="12" y="10" width="1" height="1"/><rect x="12" y="9" width="1" height="1"/><rect x="12" y="8" width="1" height="1"/><rect x="12" y="7" width="1" height="1"/><rect x="12" y="3" width="1" height="1"/><rect x="12" y="2" width="1" height="1"/><rect x="12" y="1" width="1" height="1"/><rect x="12" width="1" height="1"/><rect x="11" y="15" width="1" height="1"/><rect x="11" y="14" width="1" height="1"/><rect x="11" y="13" width="1" height="1"/><rect x="11" y="12" width="1" height="1"/><rect x="11" y="11" width="1" height="1"/><rect x="11" y="10" width="1" height="1"/><rect x="11" y="9" width="1" height="1"/><rect x="11" y="8" width="1" height="1"/><rect x="11" y="2" width="1" height="1"/><rect x="11" y="1" width="1" height="1"/><rect x="11" width="1" height="1"/><rect x="10" y="15" width="1" height="1"/><rect x="10" y="14" width="1" height="1"/><rect x="10" y="13" width="1" height="1"/><rect x="10" y="12" width="1" height="1"/><rect x="10" y="11" width="1" height="1"/><rect x="10" y="1" width="1" height="1"/><rect x="10" width="1" height="1"/><rect x="9" y="15" width="1" height="1"/><rect x="9" y="14" width="1" height="1"/><rect x="9" y="13" width="1" height="1"/><rect x="9" y="12" width="1" height="1"/><rect x="9" y="1" width="1" height="1"/><rect x="9" width="1" height="1"/><rect x="8" y="15" width="1" height="1"/><rect x="8" y="14" width="1" height="1"/><rect x="8" y="13" width="1" height="1"/><rect x="8" y="2" width="1" height="1"/><rect x="8" y="1" width="1" height="1"/><rect x="8" width="1" height="1"/><rect x="7" y="15" width="1" height="1"/><rect x="7" y="14" width="1" height="1"/><rect x="7" y="13" width="1" height="1"/><rect x="7" y="3" width="1" height="1"/><rect x="7" y="2" width="1" height="1"/><rect x="7" y="1" width="1" height="1"/><rect x="7" width="1" height="1"/><rect x="6" y="15" width="1" height="1"/><rect x="6" y="14" width="1" height="1"/><rect x="6" y="13" width="1" height="1"/><rect x="6" y="4" width="1" height="1"/><rect x="6" y="3" width="1" height="1"/><rect x="6" y="2" width="1" height="1"/><rect x="6" y="1" width="1" height="1"/><rect x="6" width="1" height="1"/><rect x="5" y="15" width="1" height="1"/><rect x="5" y="14" width="1" height="1"/><rect x="5" y="3" width="1" height="1"/><rect x="5" y="2" width="1" height="1"/><rect x="5" y="1" width="1" height="1"/><rect x="5" width="1" height="1"/><rect x="4" y="15" width="1" height="1"/><rect x="4" y="14" width="1" height="1"/><rect x="4" y="10" width="1" height="1"/><rect x="4" y="3" width="1" height="1"/><rect x="4" y="2" width="1" height="1"/><rect x="4" y="1" width="1" height="1"/><rect x="4" width="1" height="1"/><rect x="3" y="15" width="1" height="1"/><rect x="3" y="14" width="1" height="1"/><rect x="3" y="11" width="1" height="1"/><rect x="3" y="10" width="1" height="1"/><rect x="3" y="9" width="1" height="1"/><rect x="3" y="2" width="1" height="1"/><rect x="3" y="1" width="1" height="1"/><rect x="3" width="1" height="1"/><rect x="2" y="15" width="1" height="1"/><rect x="2" y="14" width="1" height="1"/><rect x="2" y="13" width="1" height="1"/><rect x="2" y="11" width="1" height="1"/><rect x="2" y="10" width="1" height="1"/><rect x="2" y="9" width="1" height="1"/><rect x="2" y="8" width="1" height="1"/><rect x="2" y="7" width="1" height="1"/><rect x="2" y="1" width="1" height="1"/><rect x="2" width="1" height="1"/><rect x="1" y="15" width="1" height="1"/><rect x="1" y="14" width="1" height="1"/><rect x="1" y="13" width="1" height="1"/><rect x="1" y="12" width="1" height="1"/><rect x="1" y="11" width="1" height="1"/><rect x="1" y="10" width="1" height="1"/><rect x="1" y="9" width="1" height="1"/><rect x="1" y="8" width="1" height="1"/><rect x="1" y="7" width="1" height="1"/><rect x="1" y="6" width="1" height="1"/><rect x="1" y="5" width="1" height="1"/><rect x="1" y="4" width="1" height="1"/><rect x="1" y="3" width="1" height="1"/><rect x="1" y="2" width="1" height="1"/><rect x="1" y="1" width="1" height="1"/><rect x="1" width="1" height="1"/><rect y="14" width="1" height="1"/><rect y="13" width="1" height="1"/><rect y="12" width="1" height="1"/><rect y="11" width="1" height="1"/><rect y="10" width="1" height="1"/><rect y="9" width="1" height="1"/><rect y="8" width="1" height="1"/><rect y="7" width="1" height="1"/><rect y="6" width="1" height="1"/><rect y="5" width="1" height="1"/><rect y="4" width="1" height="1"/><rect y="3" width="1" height="1"/><rect y="2" width="1" height="1"/><rect y="1" width="1" height="1"/></svg>
